<?xml version="1.0" standalone="no"?>
<!DOCTYPE svg PUBLIC "-//W3C//DTD SVG 20010904//EN"
 "http://www.w3.org/TR/2001/REC-SVG-20010904/DTD/svg10.dtd">
<svg version="1.0" xmlns="http://www.w3.org/2000/svg"
 width="1280.000000pt" height="1218.000000pt" viewBox="0 0 1280.000000 1218.000000"
 preserveAspectRatio="xMidYMid meet">
<metadata>
Created by potrace 1.15, written by Peter Selinger 2001-2017
</metadata>
<g transform="translate(0.000000,1218.000000) scale(0.100000,-0.100000)"
fill="#000000" stroke="none">
<path d="M6341 12118 c-108 -234 -1933 -3914 -1943 -3920 -7 -4 -296 -48 -643
-98 -346 -50 -751 -108 -900 -130 -148 -22 -551 -80 -895 -130 -344 -50 -744
-108 -890 -129 -146 -22 -446 -65 -668 -97 l-403 -59 3 -31 c3 -27 197 -221
1453 -1444 798 -776 1510 -1472 1584 -1545 l134 -134 -26 -158 c-15 -87 -47
-275 -72 -418 -24 -143 -180 -1050 -345 -2015 -165 -965 -303 -1767 -306
-1782 -5 -26 -3 -28 27 -28 24 0 552 273 1991 1030 l1958 1030 1958 -1030
c1439 -757 1967 -1030 1991 -1030 30 0 32 2 27 27 -3 16 -141 818 -306 1783
-165 965 -321 1872 -345 2015 -25 143 -57 331 -72 418 l-26 158 134 134 c74
73 787 769 1584 1545 1256 1223 1450 1417 1453 1444 l3 31 -403 59 c-222 32
-522 75 -668 97 -146 21 -546 79 -890 129 -344 50 -746 108 -895 130 -148 22
-553 80 -900 130 -346 50 -636 94 -643 98 -7 4 -453 900 -992 1992 -956 1937
-981 1985 -1010 1988 -27 3 -31 -1 -59 -60z"/>
</g>
</svg>
